<svg xmlns="http://www.w3.org/2000/svg" width="512" height="512" viewBox="0 0 96 96" fill="none">
  <defs>
    <linearGradient id="entrance-gradient" x1="10" y1="8" x2="86" y2="90" gradientUnits="userSpaceOnUse">
      <stop offset="0" stop-color="#AD46FF" />
      <stop offset="1" stop-color="#155DFC" />
    </linearGradient>
    <filter id="entrance-shadow" x="0" y="0" width="96" height="96" filterUnits="userSpaceOnUse" color-interpolation-filters="sRGB">
      <feOffset dy="6" in="SourceAlpha" />
      <feGaussianBlur stdDeviation="8" result="shadow" />
      <feColorMatrix in="shadow" type="matrix"
        values="0 0 0 0 0.45 0 0 0 0 0.15 0 0 0 0 0.75 0 0 0 0.25 0" />
      <feMerge>
        <feMergeNode in="shadow" />
        <feMergeNode in="SourceGraphic" />
      </feMerge>
    </filter>
  </defs>
  <g filter="url(#entrance-shadow)">
    <path
      d="M32 10h32c13.255 0 24 10.745 24 24v32c0 13.255-10.745 24-24 24H32C18.745 90 8 79.255 8 66V34C8 20.745 18.745 10 32 10Z"
      fill="url(#entrance-gradient)"
      shape-rendering="geometricPrecision"
    />
  </g>
  <g transform="translate(20 18)" stroke="#fff" stroke-width="7" stroke-linecap="round" stroke-linejoin="round" shape-rendering="geometricPrecision">
    <rect x="1" y="1" width="26" height="26" rx="6" fill="none" />
    <rect x="33" y="2" width="20" height="18" rx="5" fill="none" />
    <rect x="33" y="28" width="20" height="24" rx="5" fill="none" />
    <rect x="1" y="30" width="26" height="18" rx="5" fill="none" />
  </g>
</svg>
